<svg xmlns="http://www.w3.org/2000/svg" viewBox="0 0 128 128" width="128" height="128">
  <line x1="76.5" y1="87.0" x2="100.0" y2="82.3" stroke="#c0c0c0" stroke-width="1.0" opacity="0.4"/>
  <line x1="76.5" y1="87.0" x2="50.7" y2="83.4" stroke="#c0c0c0" stroke-width="1.0" opacity="0.4"/>
  <line x1="19.2" y1="38.0" x2="17.4" y2="59.5" stroke="#e5c799" stroke-width="1.0" opacity="0.4"/>
  <line x1="19.2" y1="38.0" x2="37.5" y2="24.9" stroke="#c0c0c0" stroke-width="1.0" opacity="0.4"/>
  <line x1="93.0" y1="20.6" x2="110.3" y2="33.5" stroke="#e0aed8" stroke-width="1.0" opacity="0.4"/>
  <line x1="25.3" y1="83.7" x2="50.7" y2="83.4" stroke="#d8bee9" stroke-width="1.0" opacity="0.4"/>
  <line x1="25.3" y1="83.7" x2="17.4" y2="59.5" stroke="#c0c0c0" stroke-width="1.0" opacity="0.4"/>
  <line x1="117.1" y1="70.2" x2="100.0" y2="82.3" stroke="#a8c5e9" stroke-width="1.0" opacity="0.4"/>
  <line x1="101.6" y1="108.9" x2="100.0" y2="82.3" stroke="#c0c0c0" stroke-width="1.0" opacity="0.4"/>
  <line x1="48.1" y1="45.9" x2="37.5" y2="24.9" stroke="#ffada4" stroke-width="1.0" opacity="0.4"/>
  <line x1="19.2" y1="38.0" x2="48.1" y2="45.9" stroke="#c0c0c0" stroke-width="1.0" opacity="0.4"/>
  <circle cx="76.5" cy="87.0" r="2.5" fill="#aedc93"/>
  <circle cx="19.2" cy="38.0" r="2.5" fill="#e5c799"/>
  <circle cx="93.0" cy="20.6" r="2.5" fill="#e0aed8"/>
  <circle cx="25.3" cy="83.7" r="2.5" fill="#d8bee9"/>
  <circle cx="117.1" cy="70.2" r="2.5" fill="#a8c5e9"/>
  <circle cx="101.6" cy="108.9" r="2.5" fill="#aedc93"/>
  <circle cx="48.1" cy="45.9" r="2.5" fill="#ffada4"/>
  <circle cx="50.7" cy="83.4" r="2.5" fill="#d8bee9"/>
  <circle cx="37.5" cy="24.9" r="2.5" fill="#ffada4"/>
  <circle cx="110.3" cy="33.5" r="2.5" fill="#e0aed8"/>
  <circle cx="17.4" cy="59.5" r="2.5" fill="#e5c799"/>
  <circle cx="100.0" cy="82.3" r="2.5" fill="#a8c5e9"/>
</svg>