<svg xmlns="http://www.w3.org/2000/svg" viewBox="0 0 128 128" width="128" height="128">
  <line x1="65.9" y1="76.9" x2="62.7" y2="92.1" stroke="#e0aed8" stroke-width="0.7" opacity="0.4"/>
  <line x1="65.9" y1="76.9" x2="80.3" y2="86.2" stroke="#c0c0c0" stroke-width="0.7" opacity="0.4"/>
  <line x1="8.0" y1="45.0" x2="24.3" y2="47.1" stroke="#a8c5e9" stroke-width="0.7" opacity="0.4"/>
  <line x1="8.0" y1="45.0" x2="17.4" y2="59.5" stroke="#a8c5e9" stroke-width="0.7" opacity="0.4"/>
  <line x1="88.4" y1="19.0" x2="102.5" y2="29.7" stroke="#e5c799" stroke-width="0.7" opacity="0.4"/>
  <line x1="88.4" y1="19.0" x2="79.4" y2="34.9" stroke="#e5c799" stroke-width="0.7" opacity="0.4"/>
  <line x1="88.4" y1="19.0" x2="67.9" y2="22.5" stroke="#e5c799" stroke-width="0.7" opacity="0.4"/>
  <line x1="117.1" y1="70.2" x2="118.0" y2="53.3" stroke="#ffada4" stroke-width="0.7" opacity="0.4"/>
  <line x1="117.1" y1="70.2" x2="101.4" y2="61.5" stroke="#ffada4" stroke-width="0.7" opacity="0.4"/>
  <line x1="43.2" y1="17.7" x2="34.8" y2="27.2" stroke="#aedc93" stroke-width="0.7" opacity="0.4"/>
  <line x1="94.4" y1="110.9" x2="97.2" y2="96.6" stroke="#d8bee9" stroke-width="0.7" opacity="0.4"/>
  <line x1="23.8" y1="82.2" x2="10.6" y2="77.2" stroke="#a8c5e9" stroke-width="0.7" opacity="0.4"/>
  <line x1="23.8" y1="82.2" x2="44.0" y2="83.0" stroke="#c0c0c0" stroke-width="0.7" opacity="0.4"/>
  <line x1="23.8" y1="82.2" x2="30.7" y2="62.1" stroke="#a8c5e9" stroke-width="0.7" opacity="0.4"/>
  <line x1="39.3" y1="51.5" x2="30.7" y2="62.1" stroke="#c0c0c0" stroke-width="0.7" opacity="0.4"/>
  <line x1="39.3" y1="51.5" x2="24.3" y2="47.1" stroke="#c0c0c0" stroke-width="0.7" opacity="0.4"/>
  <line x1="39.3" y1="51.5" x2="55.2" y2="40.3" stroke="#aedc93" stroke-width="0.7" opacity="0.4"/>
  <line x1="107.0" y1="42.8" x2="102.5" y2="29.7" stroke="#c0c0c0" stroke-width="0.7" opacity="0.4"/>
  <line x1="107.0" y1="42.8" x2="118.0" y2="53.3" stroke="#ffada4" stroke-width="0.7" opacity="0.4"/>
  <line x1="107.0" y1="42.8" x2="101.4" y2="61.5" stroke="#ffada4" stroke-width="0.7" opacity="0.4"/>
  <line x1="75.3" y1="51.3" x2="79.4" y2="34.9" stroke="#e5c799" stroke-width="0.7" opacity="0.4"/>
  <line x1="75.3" y1="51.3" x2="87.6" y2="67.8" stroke="#c0c0c0" stroke-width="0.7" opacity="0.4"/>
  <line x1="94.5" y1="82.7" x2="97.2" y2="96.6" stroke="#d8bee9" stroke-width="0.7" opacity="0.4"/>
  <line x1="94.5" y1="82.7" x2="80.3" y2="86.2" stroke="#d8bee9" stroke-width="0.7" opacity="0.4"/>
  <line x1="94.5" y1="82.7" x2="87.6" y2="67.8" stroke="#c0c0c0" stroke-width="0.7" opacity="0.4"/>
  <line x1="70.2" y1="102.7" x2="62.7" y2="92.1" stroke="#e0aed8" stroke-width="0.7" opacity="0.4"/>
  <line x1="70.2" y1="102.7" x2="80.3" y2="86.2" stroke="#c0c0c0" stroke-width="0.7" opacity="0.4"/>
  <line x1="70.2" y1="102.7" x2="50.5" y2="96.2" stroke="#e0aed8" stroke-width="0.7" opacity="0.4"/>
  <line x1="112.0" y1="95.9" x2="97.2" y2="96.6" stroke="#d8bee9" stroke-width="0.7" opacity="0.4"/>
  <line x1="94.5" y1="82.7" x2="112.0" y2="95.9" stroke="#d8bee9" stroke-width="0.7" opacity="0.4"/>
  <line x1="67.9" y1="22.5" x2="79.4" y2="34.9" stroke="#e5c799" stroke-width="0.7" opacity="0.4"/>
  <line x1="67.9" y1="22.5" x2="55.2" y2="40.3" stroke="#c0c0c0" stroke-width="0.7" opacity="0.4"/>
  <line x1="50.5" y1="96.2" x2="62.7" y2="92.1" stroke="#e0aed8" stroke-width="0.7" opacity="0.4"/>
  <line x1="50.5" y1="96.2" x2="44.0" y2="83.0" stroke="#e0aed8" stroke-width="0.7" opacity="0.4"/>
  <line x1="101.4" y1="61.5" x2="87.6" y2="67.8" stroke="#ffada4" stroke-width="0.7" opacity="0.4"/>
  <line x1="101.4" y1="61.5" x2="118.0" y2="53.3" stroke="#ffada4" stroke-width="0.7" opacity="0.4"/>
  <line x1="17.4" y1="59.5" x2="30.7" y2="62.1" stroke="#a8c5e9" stroke-width="0.7" opacity="0.4"/>
  <line x1="17.4" y1="59.5" x2="24.3" y2="47.1" stroke="#a8c5e9" stroke-width="0.7" opacity="0.4"/>
  <line x1="17.4" y1="59.5" x2="10.6" y2="77.2" stroke="#a8c5e9" stroke-width="0.7" opacity="0.4"/>
  <line x1="87.6" y1="67.8" x2="80.3" y2="86.2" stroke="#c0c0c0" stroke-width="0.7" opacity="0.4"/>
  <line x1="44.0" y1="83.0" x2="62.7" y2="92.1" stroke="#e0aed8" stroke-width="0.7" opacity="0.4"/>
  <line x1="80.3" y1="86.2" x2="62.7" y2="92.1" stroke="#c0c0c0" stroke-width="0.7" opacity="0.4"/>
  <line x1="80.3" y1="86.2" x2="97.2" y2="96.6" stroke="#d8bee9" stroke-width="0.7" opacity="0.4"/>
  <line x1="24.3" y1="47.1" x2="30.7" y2="62.1" stroke="#a8c5e9" stroke-width="0.7" opacity="0.4"/>
  <circle cx="65.9" cy="76.9" r="1.8" fill="#e0aed8"/>
  <circle cx="8.0" cy="45.0" r="1.8" fill="#a8c5e9"/>
  <circle cx="88.4" cy="19.0" r="1.8" fill="#e5c799"/>
  <circle cx="117.1" cy="70.2" r="1.8" fill="#ffada4"/>
  <circle cx="43.2" cy="17.7" r="1.8" fill="#aedc93"/>
  <circle cx="94.4" cy="110.9" r="1.8" fill="#d8bee9"/>
  <circle cx="23.8" cy="82.2" r="1.8" fill="#a8c5e9"/>
  <circle cx="39.3" cy="51.5" r="1.8" fill="#aedc93"/>
  <circle cx="107.0" cy="42.8" r="1.8" fill="#ffada4"/>
  <circle cx="75.3" cy="51.3" r="1.8" fill="#e5c799"/>
  <circle cx="94.5" cy="82.7" r="1.8" fill="#d8bee9"/>
  <circle cx="70.2" cy="102.7" r="1.8" fill="#e0aed8"/>
  <circle cx="112.0" cy="95.9" r="1.8" fill="#d8bee9"/>
  <circle cx="67.9" cy="22.5" r="1.8" fill="#e5c799"/>
  <circle cx="50.5" cy="96.2" r="1.8" fill="#e0aed8"/>
  <circle cx="55.2" cy="40.3" r="1.8" fill="#aedc93"/>
  <circle cx="101.4" cy="61.5" r="1.8" fill="#ffada4"/>
  <circle cx="17.4" cy="59.5" r="1.8" fill="#a8c5e9"/>
  <circle cx="79.4" cy="34.9" r="1.8" fill="#e5c799"/>
  <circle cx="118.0" cy="53.3" r="1.8" fill="#ffada4"/>
  <circle cx="87.6" cy="67.8" r="1.8" fill="#ffada4"/>
  <circle cx="44.0" cy="83.0" r="1.8" fill="#e0aed8"/>
  <circle cx="80.3" cy="86.2" r="1.8" fill="#d8bee9"/>
  <circle cx="97.2" cy="96.6" r="1.8" fill="#d8bee9"/>
  <circle cx="24.3" cy="47.1" r="1.8" fill="#a8c5e9"/>
  <circle cx="10.6" cy="77.2" r="1.8" fill="#a8c5e9"/>
  <circle cx="102.5" cy="29.7" r="1.8" fill="#e5c799"/>
  <circle cx="30.7" cy="62.1" r="1.8" fill="#a8c5e9"/>
  <circle cx="62.7" cy="92.1" r="1.8" fill="#e0aed8"/>
  <circle cx="34.8" cy="27.2" r="1.8" fill="#aedc93"/>
</svg>