<svg xmlns="http://www.w3.org/2000/svg" viewBox="0 0 64 64" fill="none">
  <rect width="64" height="64" rx="16" fill="#0a0a0f"/>
  <path
    d="M17 20.5C17 16.9101 19.9101 14 23.5 14H40.5C44.0899 14 47 16.9101 47 20.5V43.5C47 47.0899 44.0899 50 40.5 50H23.5C19.9101 50 17 47.0899 17 43.5V20.5Z"
    fill="#101822"
  />
  <path
    d="M25.5156 24.4375C25.5156 22.8732 26.7834 21.6055 28.3477 21.6055H36.1445C37.7088 21.6055 38.9766 22.8732 38.9766 24.4375V25.2266H34.5V24.9609C34.5 24.6712 34.265 24.4365 33.9766 24.4365H30.5156C30.2272 24.4365 29.9922 24.6712 29.9922 24.9609V29.2852C29.9922 29.5749 30.2272 29.8096 30.5156 29.8096H35.6562C37.4688 29.8096 38.9375 31.2783 38.9375 33.0908V39.5625C38.9375 41.1268 37.6697 42.3945 36.1055 42.3945H28.3086C26.7443 42.3945 25.4766 41.1268 25.4766 39.5625V38.457H29.9531V39.0391C29.9531 39.3288 30.1881 39.5635 30.4766 39.5635H33.9375C34.2259 39.5635 34.4609 39.3288 34.4609 39.0391V34.2852C34.4609 33.9955 34.2259 33.7607 33.9375 33.7607H28.7969C26.9844 33.7607 25.5156 32.292 25.5156 30.4795V24.4375Z"
    fill="#E6EEF6"
  />
</svg>
