<svg xmlns="http://www.w3.org/2000/svg" viewBox="0 0 128 128" width="128" height="128">
  <line x1="66.7" y1="66.3" x2="76.2" y2="60.3" stroke="#a8c5e9" stroke-width="0.5" opacity="0.4"/>
  <line x1="66.7" y1="66.3" x2="56.4" y2="58.9" stroke="#a8c5e9" stroke-width="0.5" opacity="0.4"/>
  <line x1="66.7" y1="66.3" x2="55.4" y2="72.3" stroke="#a8c5e9" stroke-width="0.5" opacity="0.4"/>
  <line x1="15.2" y1="32.6" x2="20.9" y2="43.4" stroke="#d8bee9" stroke-width="0.5" opacity="0.4"/>
  <line x1="123.6" y1="70.5" x2="114.5" y2="61.5" stroke="#e5c799" stroke-width="0.5" opacity="0.4"/>
  <line x1="98.8" y1="23.8" x2="99.5" y2="33.1" stroke="#c0c0c0" stroke-width="0.5" opacity="0.4"/>
  <line x1="98.8" y1="23.8" x2="87.8" y2="18.9" stroke="#aedc93" stroke-width="0.5" opacity="0.4"/>
  <line x1="98.8" y1="23.8" x2="85.7" y2="33.6" stroke="#aedc93" stroke-width="0.5" opacity="0.4"/>
  <line x1="94.4" y1="110.9" x2="86.1" y2="110.1" stroke="#ffada4" stroke-width="0.5" opacity="0.4"/>
  <line x1="94.4" y1="110.9" x2="102.8" y2="106.0" stroke="#ffada4" stroke-width="0.5" opacity="0.4"/>
  <line x1="94.4" y1="110.9" x2="88.3" y2="99.6" stroke="#ffada4" stroke-width="0.5" opacity="0.4"/>
  <line x1="18.5" y1="81.2" x2="30.3" y2="82.8" stroke="#e0aed8" stroke-width="0.5" opacity="0.4"/>
  <line x1="18.5" y1="81.2" x2="27.5" y2="72.5" stroke="#e0aed8" stroke-width="0.5" opacity="0.4"/>
  <line x1="18.5" y1="81.2" x2="31.6" y2="91.9" stroke="#e0aed8" stroke-width="0.5" opacity="0.4"/>
  <line x1="53.6" y1="16.7" x2="63.3" y2="17.6" stroke="#aedc93" stroke-width="0.5" opacity="0.4"/>
  <line x1="53.6" y1="16.7" x2="60.0" y2="25.8" stroke="#aedc93" stroke-width="0.5" opacity="0.4"/>
  <line x1="53.6" y1="16.7" x2="42.3" y2="19.2" stroke="#c0c0c0" stroke-width="0.5" opacity="0.4"/>
  <line x1="49.1" y1="96.5" x2="42.2" y2="88.9" stroke="#a8c5e9" stroke-width="0.5" opacity="0.4"/>
  <line x1="49.1" y1="96.5" x2="56.2" y2="86.4" stroke="#a8c5e9" stroke-width="0.5" opacity="0.4"/>
  <line x1="49.1" y1="96.5" x2="63.5" y2="95.6" stroke="#a8c5e9" stroke-width="0.5" opacity="0.4"/>
  <line x1="96.7" y1="54.7" x2="98.6" y2="62.6" stroke="#e5c799" stroke-width="0.5" opacity="0.4"/>
  <line x1="96.7" y1="54.7" x2="93.7" y2="44.3" stroke="#e5c799" stroke-width="0.5" opacity="0.4"/>
  <line x1="96.7" y1="54.7" x2="87.7" y2="62.1" stroke="#e5c799" stroke-width="0.5" opacity="0.4"/>
  <line x1="39.9" y1="49.7" x2="48.1" y2="45.9" stroke="#d8bee9" stroke-width="0.5" opacity="0.4"/>
  <line x1="39.9" y1="49.7" x2="48.4" y2="59.8" stroke="#c0c0c0" stroke-width="0.5" opacity="0.4"/>
  <line x1="39.9" y1="49.7" x2="26.3" y2="53.4" stroke="#c0c0c0" stroke-width="0.5" opacity="0.4"/>
  <line x1="94.5" y1="82.7" x2="83.9" y2="85.3" stroke="#ffada4" stroke-width="0.5" opacity="0.4"/>
  <line x1="94.5" y1="82.7" x2="102.3" y2="90.8" stroke="#ffada4" stroke-width="0.5" opacity="0.4"/>
  <line x1="94.5" y1="82.7" x2="90.7" y2="71.1" stroke="#c0c0c0" stroke-width="0.5" opacity="0.4"/>
  <line x1="72.2" y1="37.5" x2="64.8" y2="33.7" stroke="#aedc93" stroke-width="0.5" opacity="0.4"/>
  <line x1="72.2" y1="37.5" x2="82.3" y2="45.6" stroke="#aedc93" stroke-width="0.5" opacity="0.4"/>
  <line x1="72.2" y1="37.5" x2="69.8" y2="23.8" stroke="#aedc93" stroke-width="0.5" opacity="0.4"/>
  <line x1="16.1" y1="56.4" x2="8.3" y2="52.0" stroke="#e0aed8" stroke-width="0.5" opacity="0.4"/>
  <line x1="16.1" y1="56.4" x2="26.3" y2="53.4" stroke="#e0aed8" stroke-width="0.5" opacity="0.4"/>
  <line x1="16.1" y1="56.4" x2="20.9" y2="43.4" stroke="#c0c0c0" stroke-width="0.5" opacity="0.4"/>
  <line x1="77.5" y1="15.7" x2="87.8" y2="18.9" stroke="#aedc93" stroke-width="0.5" opacity="0.4"/>
  <line x1="77.5" y1="15.7" x2="81.8" y2="26.0" stroke="#aedc93" stroke-width="0.5" opacity="0.4"/>
  <line x1="77.5" y1="15.7" x2="69.8" y2="23.8" stroke="#aedc93" stroke-width="0.5" opacity="0.4"/>
  <line x1="70.1" y1="89.3" x2="66.9" y2="81.4" stroke="#a8c5e9" stroke-width="0.5" opacity="0.4"/>
  <line x1="70.1" y1="89.3" x2="63.5" y2="95.6" stroke="#a8c5e9" stroke-width="0.5" opacity="0.4"/>
  <line x1="70.1" y1="89.3" x2="70.2" y2="102.7" stroke="#c0c0c0" stroke-width="0.5" opacity="0.4"/>
  <line x1="112.0" y1="95.9" x2="119.4" y2="88.2" stroke="#ffada4" stroke-width="0.5" opacity="0.4"/>
  <line x1="112.0" y1="95.9" x2="102.3" y2="90.8" stroke="#ffada4" stroke-width="0.5" opacity="0.4"/>
  <line x1="112.0" y1="95.9" x2="107.3" y2="84.9" stroke="#ffada4" stroke-width="0.5" opacity="0.4"/>
  <line x1="45.4" y1="75.8" x2="55.4" y2="72.3" stroke="#a8c5e9" stroke-width="0.5" opacity="0.4"/>
  <line x1="45.4" y1="75.8" x2="38.8" y2="66.5" stroke="#c0c0c0" stroke-width="0.5" opacity="0.4"/>
  <line x1="45.4" y1="75.8" x2="42.2" y2="88.9" stroke="#a8c5e9" stroke-width="0.5" opacity="0.4"/>
  <line x1="116.9" y1="49.1" x2="107.0" y2="42.8" stroke="#e5c799" stroke-width="0.5" opacity="0.4"/>
  <line x1="116.9" y1="49.1" x2="114.5" y2="61.5" stroke="#e5c799" stroke-width="0.5" opacity="0.4"/>
  <line x1="116.9" y1="49.1" x2="110.9" y2="34.9" stroke="#e5c799" stroke-width="0.5" opacity="0.4"/>
  <line x1="31.5" y1="21.7" x2="42.3" y2="19.2" stroke="#d8bee9" stroke-width="0.5" opacity="0.4"/>
  <line x1="31.5" y1="21.7" x2="41.9" y2="27.9" stroke="#d8bee9" stroke-width="0.5" opacity="0.4"/>
  <line x1="31.5" y1="21.7" x2="32.3" y2="37.3" stroke="#d8bee9" stroke-width="0.5" opacity="0.4"/>
  <line x1="48.8" y1="34.6" x2="41.9" y2="27.9" stroke="#d8bee9" stroke-width="0.5" opacity="0.4"/>
  <line x1="48.8" y1="34.6" x2="48.1" y2="45.9" stroke="#d8bee9" stroke-width="0.5" opacity="0.4"/>
  <line x1="48.8" y1="34.6" x2="60.0" y2="25.8" stroke="#c0c0c0" stroke-width="0.5" opacity="0.4"/>
  <line x1="31.6" y1="91.9" x2="30.3" y2="82.8" stroke="#e0aed8" stroke-width="0.5" opacity="0.4"/>
  <line x1="31.6" y1="91.9" x2="42.2" y2="88.9" stroke="#c0c0c0" stroke-width="0.5" opacity="0.4"/>
  <line x1="78.8" y1="103.7" x2="70.2" y2="102.7" stroke="#ffada4" stroke-width="0.5" opacity="0.4"/>
  <line x1="78.8" y1="103.7" x2="86.1" y2="110.1" stroke="#ffada4" stroke-width="0.5" opacity="0.4"/>
  <line x1="78.8" y1="103.7" x2="88.3" y2="99.6" stroke="#ffada4" stroke-width="0.5" opacity="0.4"/>
  <line x1="16.1" y1="56.4" x2="5.4" y2="69.2" stroke="#e0aed8" stroke-width="0.5" opacity="0.4"/>
  <line x1="60.5" y1="48.8" x2="56.4" y2="58.9" stroke="#c0c0c0" stroke-width="0.5" opacity="0.4"/>
  <line x1="60.5" y1="48.8" x2="48.1" y2="45.9" stroke="#c0c0c0" stroke-width="0.5" opacity="0.4"/>
  <line x1="60.5" y1="48.8" x2="64.8" y2="33.7" stroke="#aedc93" stroke-width="0.5" opacity="0.4"/>
  <line x1="30.7" y1="62.1" x2="38.8" y2="66.5" stroke="#e0aed8" stroke-width="0.5" opacity="0.4"/>
  <line x1="30.7" y1="62.1" x2="26.3" y2="53.4" stroke="#e0aed8" stroke-width="0.5" opacity="0.4"/>
  <line x1="30.7" y1="62.1" x2="27.5" y2="72.5" stroke="#e0aed8" stroke-width="0.5" opacity="0.4"/>
  <line x1="110.9" y1="34.9" x2="107.0" y2="42.8" stroke="#e5c799" stroke-width="0.5" opacity="0.4"/>
  <line x1="110.9" y1="34.9" x2="99.5" y2="33.1" stroke="#e5c799" stroke-width="0.5" opacity="0.4"/>
  <line x1="98.8" y1="23.8" x2="110.9" y2="34.9" stroke="#c0c0c0" stroke-width="0.5" opacity="0.4"/>
  <line x1="79.1" y1="74.9" x2="83.9" y2="85.3" stroke="#c0c0c0" stroke-width="0.5" opacity="0.4"/>
  <line x1="79.1" y1="74.9" x2="90.7" y2="71.1" stroke="#c0c0c0" stroke-width="0.5" opacity="0.4"/>
  <line x1="79.1" y1="74.9" x2="66.9" y2="81.4" stroke="#a8c5e9" stroke-width="0.5" opacity="0.4"/>
  <line x1="105.6" y1="73.1" x2="107.3" y2="84.9" stroke="#c0c0c0" stroke-width="0.5" opacity="0.4"/>
  <line x1="105.6" y1="73.1" x2="98.6" y2="62.6" stroke="#e5c799" stroke-width="0.5" opacity="0.4"/>
  <line x1="105.6" y1="73.1" x2="114.5" y2="61.5" stroke="#e5c799" stroke-width="0.5" opacity="0.4"/>
  <line x1="32.3" y1="37.3" x2="20.9" y2="43.4" stroke="#d8bee9" stroke-width="0.5" opacity="0.4"/>
  <line x1="32.3" y1="37.3" x2="41.9" y2="27.9" stroke="#d8bee9" stroke-width="0.5" opacity="0.4"/>
  <line x1="39.9" y1="49.7" x2="32.3" y2="37.3" stroke="#d8bee9" stroke-width="0.5" opacity="0.4"/>
  <line x1="97.2" y1="96.6" x2="102.3" y2="90.8" stroke="#ffada4" stroke-width="0.5" opacity="0.4"/>
  <line x1="97.2" y1="96.6" x2="88.3" y2="99.6" stroke="#ffada4" stroke-width="0.5" opacity="0.4"/>
  <line x1="97.2" y1="96.6" x2="102.8" y2="106.0" stroke="#ffada4" stroke-width="0.5" opacity="0.4"/>
  <line x1="85.7" y1="33.6" x2="81.8" y2="26.0" stroke="#aedc93" stroke-width="0.5" opacity="0.4"/>
  <line x1="85.7" y1="33.6" x2="82.3" y2="45.6" stroke="#aedc93" stroke-width="0.5" opacity="0.4"/>
  <line x1="85.7" y1="33.6" x2="93.7" y2="44.3" stroke="#c0c0c0" stroke-width="0.5" opacity="0.4"/>
  <line x1="48.4" y1="59.8" x2="56.4" y2="58.9" stroke="#a8c5e9" stroke-width="0.5" opacity="0.4"/>
  <line x1="48.4" y1="59.8" x2="38.8" y2="66.5" stroke="#c0c0c0" stroke-width="0.5" opacity="0.4"/>
  <line x1="48.4" y1="59.8" x2="48.1" y2="45.9" stroke="#c0c0c0" stroke-width="0.5" opacity="0.4"/>
  <line x1="114.5" y1="61.5" x2="98.6" y2="62.6" stroke="#e5c799" stroke-width="0.5" opacity="0.4"/>
  <line x1="82.3" y1="45.6" x2="93.7" y2="44.3" stroke="#c0c0c0" stroke-width="0.5" opacity="0.4"/>
  <line x1="82.3" y1="45.6" x2="76.2" y2="60.3" stroke="#c0c0c0" stroke-width="0.5" opacity="0.4"/>
  <line x1="56.2" y1="86.4" x2="63.5" y2="95.6" stroke="#a8c5e9" stroke-width="0.5" opacity="0.4"/>
  <line x1="56.2" y1="86.4" x2="66.9" y2="81.4" stroke="#a8c5e9" stroke-width="0.5" opacity="0.4"/>
  <line x1="56.2" y1="86.4" x2="55.4" y2="72.3" stroke="#a8c5e9" stroke-width="0.5" opacity="0.4"/>
  <line x1="20.9" y1="43.4" x2="26.3" y2="53.4" stroke="#c0c0c0" stroke-width="0.5" opacity="0.4"/>
  <line x1="20.9" y1="43.4" x2="8.3" y2="52.0" stroke="#c0c0c0" stroke-width="0.5" opacity="0.4"/>
  <line x1="90.7" y1="71.1" x2="87.7" y2="62.1" stroke="#e5c799" stroke-width="0.5" opacity="0.4"/>
  <line x1="90.7" y1="71.1" x2="98.6" y2="62.6" stroke="#e5c799" stroke-width="0.5" opacity="0.4"/>
  <line x1="105.6" y1="73.1" x2="90.7" y2="71.1" stroke="#e5c799" stroke-width="0.5" opacity="0.4"/>
  <line x1="107.3" y1="84.9" x2="102.3" y2="90.8" stroke="#ffada4" stroke-width="0.5" opacity="0.4"/>
  <line x1="107.3" y1="84.9" x2="119.4" y2="88.2" stroke="#ffada4" stroke-width="0.5" opacity="0.4"/>
  <line x1="94.5" y1="82.7" x2="107.3" y2="84.9" stroke="#ffada4" stroke-width="0.5" opacity="0.4"/>
  <line x1="76.2" y1="60.3" x2="87.7" y2="62.1" stroke="#c0c0c0" stroke-width="0.5" opacity="0.4"/>
  <line x1="79.1" y1="74.9" x2="76.2" y2="60.3" stroke="#a8c5e9" stroke-width="0.5" opacity="0.4"/>
  <line x1="69.8" y1="23.8" x2="63.3" y2="17.6" stroke="#aedc93" stroke-width="0.5" opacity="0.4"/>
  <line x1="69.8" y1="23.8" x2="60.0" y2="25.8" stroke="#aedc93" stroke-width="0.5" opacity="0.4"/>
  <line x1="69.8" y1="23.8" x2="64.8" y2="33.7" stroke="#aedc93" stroke-width="0.5" opacity="0.4"/>
  <line x1="42.3" y1="19.2" x2="41.9" y2="27.9" stroke="#d8bee9" stroke-width="0.5" opacity="0.4"/>
  <line x1="48.8" y1="34.6" x2="42.3" y2="19.2" stroke="#d8bee9" stroke-width="0.5" opacity="0.4"/>
  <line x1="70.1" y1="89.3" x2="83.9" y2="85.3" stroke="#c0c0c0" stroke-width="0.5" opacity="0.4"/>
  <line x1="83.9" y1="85.3" x2="88.3" y2="99.6" stroke="#ffada4" stroke-width="0.5" opacity="0.4"/>
  <line x1="90.7" y1="71.1" x2="83.9" y2="85.3" stroke="#c0c0c0" stroke-width="0.5" opacity="0.4"/>
  <line x1="27.5" y1="72.5" x2="30.3" y2="82.8" stroke="#e0aed8" stroke-width="0.5" opacity="0.4"/>
  <line x1="27.5" y1="72.5" x2="38.8" y2="66.5" stroke="#e0aed8" stroke-width="0.5" opacity="0.4"/>
  <line x1="93.7" y1="44.3" x2="99.5" y2="33.1" stroke="#e5c799" stroke-width="0.5" opacity="0.4"/>
  <line x1="93.7" y1="44.3" x2="107.0" y2="42.8" stroke="#e5c799" stroke-width="0.5" opacity="0.4"/>
  <line x1="87.8" y1="18.9" x2="81.8" y2="26.0" stroke="#aedc93" stroke-width="0.5" opacity="0.4"/>
  <line x1="85.7" y1="33.6" x2="87.8" y2="18.9" stroke="#aedc93" stroke-width="0.5" opacity="0.4"/>
  <line x1="55.4" y1="72.3" x2="56.4" y2="58.9" stroke="#a8c5e9" stroke-width="0.5" opacity="0.4"/>
  <line x1="48.4" y1="59.8" x2="55.4" y2="72.3" stroke="#a8c5e9" stroke-width="0.5" opacity="0.4"/>
  <line x1="55.4" y1="72.3" x2="66.9" y2="81.4" stroke="#a8c5e9" stroke-width="0.5" opacity="0.4"/>
  <line x1="42.2" y1="88.9" x2="30.3" y2="82.8" stroke="#c0c0c0" stroke-width="0.5" opacity="0.4"/>
  <line x1="56.2" y1="86.4" x2="42.2" y2="88.9" stroke="#a8c5e9" stroke-width="0.5" opacity="0.4"/>
  <line x1="60.0" y1="25.8" x2="63.3" y2="17.6" stroke="#aedc93" stroke-width="0.5" opacity="0.4"/>
  <line x1="60.0" y1="25.8" x2="64.8" y2="33.7" stroke="#aedc93" stroke-width="0.5" opacity="0.4"/>
  <line x1="72.2" y1="37.5" x2="60.0" y2="25.8" stroke="#aedc93" stroke-width="0.5" opacity="0.4"/>
  <line x1="112.0" y1="95.9" x2="102.8" y2="106.0" stroke="#ffada4" stroke-width="0.5" opacity="0.4"/>
  <line x1="102.8" y1="106.0" x2="102.3" y2="90.8" stroke="#ffada4" stroke-width="0.5" opacity="0.4"/>
  <line x1="102.8" y1="106.0" x2="88.3" y2="99.6" stroke="#ffada4" stroke-width="0.5" opacity="0.4"/>
  <line x1="87.7" y1="62.1" x2="98.6" y2="62.6" stroke="#e5c799" stroke-width="0.5" opacity="0.4"/>
  <line x1="79.1" y1="74.9" x2="87.7" y2="62.1" stroke="#c0c0c0" stroke-width="0.5" opacity="0.4"/>
  <line x1="88.3" y1="99.6" x2="86.1" y2="110.1" stroke="#ffada4" stroke-width="0.5" opacity="0.4"/>
  <line x1="88.3" y1="99.6" x2="102.3" y2="90.8" stroke="#ffada4" stroke-width="0.5" opacity="0.4"/>
  <line x1="99.5" y1="33.1" x2="107.0" y2="42.8" stroke="#e5c799" stroke-width="0.5" opacity="0.4"/>
  <line x1="85.7" y1="33.6" x2="99.5" y2="33.1" stroke="#c0c0c0" stroke-width="0.5" opacity="0.4"/>
  <line x1="45.4" y1="75.8" x2="30.3" y2="82.8" stroke="#c0c0c0" stroke-width="0.5" opacity="0.4"/>
  <line x1="63.5" y1="95.6" x2="70.2" y2="102.7" stroke="#c0c0c0" stroke-width="0.5" opacity="0.4"/>
  <line x1="63.5" y1="95.6" x2="66.9" y2="81.4" stroke="#a8c5e9" stroke-width="0.5" opacity="0.4"/>
  <line x1="39.9" y1="49.7" x2="38.8" y2="66.5" stroke="#c0c0c0" stroke-width="0.5" opacity="0.4"/>
  <line x1="48.1" y1="45.9" x2="56.4" y2="58.9" stroke="#c0c0c0" stroke-width="0.5" opacity="0.4"/>
  <line x1="96.7" y1="54.7" x2="107.0" y2="42.8" stroke="#e5c799" stroke-width="0.5" opacity="0.4"/>
  <line x1="77.5" y1="15.7" x2="63.3" y2="17.6" stroke="#aedc93" stroke-width="0.5" opacity="0.4"/>
  <line x1="63.3" y1="17.6" x2="64.8" y2="33.7" stroke="#aedc93" stroke-width="0.5" opacity="0.4"/>
  <line x1="53.6" y1="16.7" x2="41.9" y2="27.9" stroke="#c0c0c0" stroke-width="0.5" opacity="0.4"/>
  <line x1="66.7" y1="66.3" x2="66.9" y2="81.4" stroke="#a8c5e9" stroke-width="0.5" opacity="0.4"/>
  <line x1="69.8" y1="23.8" x2="81.8" y2="26.0" stroke="#aedc93" stroke-width="0.5" opacity="0.4"/>
  <line x1="72.2" y1="37.5" x2="81.8" y2="26.0" stroke="#aedc93" stroke-width="0.5" opacity="0.4"/>
  <line x1="48.8" y1="34.6" x2="64.8" y2="33.7" stroke="#c0c0c0" stroke-width="0.5" opacity="0.4"/>
  <circle cx="66.7" cy="66.3" r="1.2" fill="#a8c5e9"/>
  <circle cx="15.2" cy="32.6" r="1.2" fill="#d8bee9"/>
  <circle cx="123.6" cy="70.5" r="1.2" fill="#e5c799"/>
  <circle cx="98.8" cy="23.8" r="1.2" fill="#aedc93"/>
  <circle cx="94.4" cy="110.9" r="1.2" fill="#ffada4"/>
  <circle cx="18.5" cy="81.2" r="1.2" fill="#e0aed8"/>
  <circle cx="53.6" cy="16.7" r="1.2" fill="#aedc93"/>
  <circle cx="49.1" cy="96.5" r="1.2" fill="#a8c5e9"/>
  <circle cx="96.7" cy="54.7" r="1.2" fill="#e5c799"/>
  <circle cx="39.9" cy="49.7" r="1.2" fill="#d8bee9"/>
  <circle cx="94.5" cy="82.7" r="1.2" fill="#ffada4"/>
  <circle cx="72.2" cy="37.5" r="1.2" fill="#aedc93"/>
  <circle cx="16.1" cy="56.4" r="1.2" fill="#e0aed8"/>
  <circle cx="77.5" cy="15.7" r="1.2" fill="#aedc93"/>
  <circle cx="70.1" cy="89.3" r="1.2" fill="#a8c5e9"/>
  <circle cx="112.0" cy="95.9" r="1.2" fill="#ffada4"/>
  <circle cx="45.4" cy="75.8" r="1.2" fill="#a8c5e9"/>
  <circle cx="116.9" cy="49.1" r="1.2" fill="#e5c799"/>
  <circle cx="31.5" cy="21.7" r="1.2" fill="#d8bee9"/>
  <circle cx="48.8" cy="34.6" r="1.2" fill="#d8bee9"/>
  <circle cx="31.6" cy="91.9" r="1.2" fill="#e0aed8"/>
  <circle cx="78.8" cy="103.7" r="1.2" fill="#ffada4"/>
  <circle cx="5.4" cy="69.2" r="1.2" fill="#e0aed8"/>
  <circle cx="60.5" cy="48.8" r="1.2" fill="#aedc93"/>
  <circle cx="30.7" cy="62.1" r="1.2" fill="#e0aed8"/>
  <circle cx="110.9" cy="34.9" r="1.2" fill="#e5c799"/>
  <circle cx="79.1" cy="74.9" r="1.2" fill="#a8c5e9"/>
  <circle cx="105.6" cy="73.1" r="1.2" fill="#e5c799"/>
  <circle cx="32.3" cy="37.3" r="1.2" fill="#d8bee9"/>
  <circle cx="97.2" cy="96.6" r="1.2" fill="#ffada4"/>
  <circle cx="85.7" cy="33.6" r="1.2" fill="#aedc93"/>
  <circle cx="48.4" cy="59.8" r="1.2" fill="#a8c5e9"/>
  <circle cx="114.5" cy="61.5" r="1.2" fill="#e5c799"/>
  <circle cx="82.3" cy="45.6" r="1.2" fill="#aedc93"/>
  <circle cx="56.2" cy="86.4" r="1.2" fill="#a8c5e9"/>
  <circle cx="20.9" cy="43.4" r="1.2" fill="#d8bee9"/>
  <circle cx="90.7" cy="71.1" r="1.2" fill="#e5c799"/>
  <circle cx="107.3" cy="84.9" r="1.2" fill="#ffada4"/>
  <circle cx="76.2" cy="60.3" r="1.2" fill="#a8c5e9"/>
  <circle cx="69.8" cy="23.8" r="1.2" fill="#aedc93"/>
  <circle cx="42.3" cy="19.2" r="1.2" fill="#d8bee9"/>
  <circle cx="83.9" cy="85.3" r="1.2" fill="#ffada4"/>
  <circle cx="27.5" cy="72.5" r="1.2" fill="#e0aed8"/>
  <circle cx="93.7" cy="44.3" r="1.2" fill="#e5c799"/>
  <circle cx="87.8" cy="18.9" r="1.2" fill="#aedc93"/>
  <circle cx="119.4" cy="88.2" r="1.2" fill="#ffada4"/>
  <circle cx="55.4" cy="72.3" r="1.2" fill="#a8c5e9"/>
  <circle cx="42.2" cy="88.9" r="1.2" fill="#a8c5e9"/>
  <circle cx="60.0" cy="25.8" r="1.2" fill="#aedc93"/>
  <circle cx="26.3" cy="53.4" r="1.2" fill="#e0aed8"/>
  <circle cx="102.8" cy="106.0" r="1.2" fill="#ffada4"/>
  <circle cx="87.7" cy="62.1" r="1.2" fill="#e5c799"/>
  <circle cx="88.3" cy="99.6" r="1.2" fill="#ffada4"/>
  <circle cx="99.5" cy="33.1" r="1.2" fill="#e5c799"/>
  <circle cx="30.3" cy="82.8" r="1.2" fill="#e0aed8"/>
  <circle cx="63.5" cy="95.6" r="1.2" fill="#a8c5e9"/>
  <circle cx="38.8" cy="66.5" r="1.2" fill="#e0aed8"/>
  <circle cx="8.3" cy="52.0" r="1.2" fill="#e0aed8"/>
  <circle cx="48.1" cy="45.9" r="1.2" fill="#d8bee9"/>
  <circle cx="107.0" cy="42.8" r="1.2" fill="#e5c799"/>
  <circle cx="63.3" cy="17.6" r="1.2" fill="#aedc93"/>
  <circle cx="41.9" cy="27.9" r="1.2" fill="#d8bee9"/>
  <circle cx="70.2" cy="102.7" r="1.2" fill="#ffada4"/>
  <circle cx="66.9" cy="81.4" r="1.2" fill="#a8c5e9"/>
  <circle cx="81.8" cy="26.0" r="1.2" fill="#aedc93"/>
  <circle cx="64.8" cy="33.7" r="1.2" fill="#aedc93"/>
  <circle cx="86.1" cy="110.1" r="1.2" fill="#ffada4"/>
  <circle cx="98.6" cy="62.6" r="1.2" fill="#e5c799"/>
  <circle cx="56.4" cy="58.9" r="1.2" fill="#a8c5e9"/>
  <circle cx="102.3" cy="90.8" r="1.2" fill="#ffada4"/>
</svg>